<!-- Generator: Adobe Illustrator 18.1.1, SVG Export Plug-In  -->
<svg version="1.1"
	 xmlns="http://www.w3.org/2000/svg" xmlns:xlink="http://www.w3.org/1999/xlink" xmlns:a="http://ns.adobe.com/AdobeSVGViewerExtensions/3.0/"
	 x="0px" y="0px" width="97.8px" height="92.2px" viewBox="0 0 97.8 92.2" enable-background="new 0 0 97.8 92.2"
	 xml:space="preserve">
<defs>
</defs>
<path fill="#EC2E00" d="M58.6,71.9c1.1,1,2,0.4,2.7,0.1C74.9,66.5,83.7,46.5,78,33.1c-5.6-13.2-15.5-23-26-32.4
	c-1.6-1.4-2.4-0.5-3.5,0.5c-6.6,6-12.7,12.4-18.1,19.5C23,30.5,18.9,41,23.6,53.3c3.2,8.5,8.3,15.4,17.2,18.7
	c-0.7-1.1-1.6-1.9-2.4-2.8c-7.7-8.9-12.9-21.5-3.7-35.2c4-6,8.7-11.4,13.9-16.5c1.4-1.4,2.3-1.5,3.8-0.1c6.1,5.9,11.8,12.1,16,19.5
	c4,7.1,4.2,14.4,0.9,21.8C67,64.1,63.7,68.7,58.6,71.9z"/>
<path fill="#F6921E" d="M57.1,73.6c0.9,0.8,1.6,0.3,2.2,0.1c10.9-4.4,17.9-20.5,13.4-31.2c-4.5-10.6-12.5-18.5-20.9-26
	c-1.2-1.1-1.9-0.4-2.8,0.4c-5.3,4.8-10.2,9.9-14.5,15.6c-6,7.9-9.3,16.3-5.5,26.2c2.6,6.8,6.7,12.3,13.8,15
	c-0.5-0.9-1.3-1.5-1.9-2.3c-6.2-7.1-10.3-17.2-2.9-28.3c3.2-4.8,7-9.2,11.1-13.2c1.1-1.1,1.9-1.2,3-0.1c4.9,4.7,9.5,9.7,12.9,15.7
	c3.2,5.7,3.3,11.5,0.8,17.5C63.8,67.3,61.2,71,57.1,73.6z"/>
<path fill="#FAAF40" d="M55.8,74.7c0.7,0.7,1.3,0.3,1.7,0.1c8.7-3.6,14.4-16.4,10.7-25.1c-3.6-8.5-10-14.8-16.7-20.9
	c-1-0.9-1.6-0.3-2.3,0.3c-4.2,3.9-8.2,8-11.7,12.5c-4.8,6.3-7.4,13.1-4.4,21.1c2.1,5.5,5.4,9.9,11.1,12.1c-0.4-0.7-1-1.2-1.5-1.8
	c-5-5.7-8.3-13.9-2.4-22.7c2.6-3.9,5.6-7.4,8.9-10.6c0.9-0.9,1.5-1,2.4-0.1c3.9,3.8,7.6,7.8,10.3,12.6c2.6,4.6,2.7,9.3,0.6,14
	C61.2,69.7,59.1,72.7,55.8,74.7z"/>
<path fill="#F9EC31" d="M54.8,76.4c0.6,0.5,1,0.2,1.4,0c7-2.9,11.6-13.2,8.6-20.1c-2.9-6.8-8-11.9-13.4-16.8
	c-0.8-0.7-1.2-0.2-1.8,0.3c-3.4,3.1-6.6,6.4-9.4,10.1c-3.9,5.1-6,10.5-3.5,16.9c1.7,4.4,4.3,8,8.9,9.7c-0.3-0.5-0.8-1-1.2-1.5
	c-4-4.6-6.7-11.1-1.9-18.2c2.1-3.1,4.5-5.9,7.2-8.5c0.7-0.7,1.2-0.8,2,0c3.2,3,6.1,6.3,8.3,10.1c2.1,3.7,2.2,7.4,0.5,11.3
	C59.1,72.4,57.4,74.8,54.8,76.4z"/>
<linearGradient id="SVGID_1_" gradientUnits="userSpaceOnUse" x1="0" y1="72.2487" x2="97.8042" y2="72.2487">
	<stop  offset="0" style="stop-color:#47A5DC"/>
	<stop  offset="1" style="stop-color:#243269"/>
</linearGradient>
<path fill="url(#SVGID_1_)" d="M50.4,70.8c10.2,0,19.5-2.1,26.3-18.5c59.9,0-26.3,39.9-26.3,39.9s-93-39.9-26.3-39.9
	C30.9,68.7,40.1,70.8,50.4,70.8z"/>
</svg>
